<svg xmlns="http://www.w3.org/2000/svg" xmlns:xlink="http://www.w3.org/1999/xlink" id="Capa_1" x="0px" y="0px" width="1445px" height="422px" viewBox="0 0 1445 422" style="enable-background:new 0 0 1445 422;" xml:space="preserve"><style type="text/css">	.st0{fill:#333333;}	.st1{fill:#000000;}	.st2{fill:#1A1A1A;}	.st3{fill:#F7931E;}	.st4{clip-path:url(#SVGID_2_);}	.st5{clip-path:url(#SVGID_4_);}</style><g>	<g>		<path class="st1" d="M451.1,230.9c0-1.1-0.1-2.3-0.2-3.4c-7.3-68.8-37.6-124.4-95.2-163.9c-51.1-34.9-107-44.4-167.1-30.4   c-28.3,6.6-54.2,18.3-77.2,36c-32.4,25-56.1,56.6-71.3,94.6c-8.9,22.4-14.6,45.6-15.8,69.7c-1.4,28.1,5.3,54.7,18.6,79.3   c26.8,49.5,67.8,79.6,124.4,83.7c60.5,4.4,107-21.7,140-72.1c15.5-23.7,22.3-50.3,23.4-78.5c0.3-6.8,0.5-6.8,7-6.8   c0.7,0,1.4,0.1,1.8-0.7c0-0.3,0-0.7-0.2-0.8c-8.2-6.1-17.2-11-26.2-15.8c-0.6-0.3-1.3-0.7-1.9,0c-0.6,0.8-0.2,1.6,0.2,2.4   c1.9,4.6,4.4,8.9,7,13.1c1.7,2.7,3.3,5.5,2.8,9.2c-3.8-6.4-9-11.6-14.2-16.8c-0.5-0.5-0.8-1.2-1-1.9c-1.5-4.3-4.9-5.6-9-5.8   c-1.1,0-2.4-0.4-3,0.9c-0.5,1.1,0.4,1.9,0.9,2.7c4,6.7,8.1,13.3,11.9,20.1c4.3,7.7,8.7,15.3,10.4,24.1c0.6,3,1.6,6.1,0.7,9.6   c-1.5-1.4-1.6-2.8-2.1-4.1c-2.8-7.6-5.1-15.3-8.3-22.7c-5.8-13.4-17.1-20.7-30.4-25.3c-1.2-0.4-3-1.3-3.9,0.2   c-0.8,1.4,0.8,2.6,1.8,3.5c4.8,4.6,9.8,9.1,14.7,13.5c7,6.3,11.9,14,14.9,22.9c2.5,7.7,4.4,15.6,5.2,23.6   c0.6,7.3-0.4,14.4-3.5,21.5c-0.5-0.6-0.8-0.8-0.8-1c-0.2-1.4-0.3-2.8-0.4-4.2c-0.7-18.6-5.3-36.1-13.8-52.6   c-4.9-9.5-11.5-17.5-21.1-22.6c-1.5-0.8-3.5-3.1-4.7-1.4c-1.2,1.7,1.7,2.9,3,3.9c17,13.6,25.8,31.6,27.8,53.1   c0.3,3-0.3,5.3-3.7,6.1c-3.5,0.7-4.7-1.3-5.6-4.2c-1.4-4.7-2.9-9.5-4.8-14.1c-7.2-17.9-18.1-32.7-36.3-41   c-1.1-0.5-2.8-2.2-3.7-0.7c-0.9,1.5,1.2,2.2,2.3,3c0.6,0.4,1.2,0.8,1.8,1.2c7.2,4.9,14.3,9.7,19.6,16.8   c16.1,21.4,21.1,45.5,17.5,71.5c-1.3,9.9-4,19.5-10.4,27.5c-1.6,2-3.5,3.8-6.3,5c0.1-1.1,0-1.5,0.2-1.9   c5.1-10.5,7.3-21.7,7.3-33.3c0-2.5,1.2-4.3,3.2-5.6c3.2-2.1,4.7-4.9,3.9-8.7c-0.8-3.7-3.3-6.2-6.8-6.7c-3.5-0.6-4.7-2.5-5.2-5.6   c-0.2-1.5-0.7-3-1.1-4.6c-4.2-15.8-11-30.1-23.9-40.7c-2.4-2-4.9-3.7-5.8-7.1c-0.4-1.6-1.8-2.5-3.6-2.3c-1.3,0.2-2,1.1-2.2,2.3   c-0.2,1.9,0.6,3.4,2.5,3.9c2,0.5,3.7,1.3,5.2,2.8c13.3,12.8,21.7,28.2,25.1,46.3c0.7,3.9,1.5,7.7-0.2,11.7   c-0.9,2.1-0.4,4.5,1.2,5.9c3.2,2.8,3.1,6.2,2.5,9.7c-0.7,4.5-1.3,9-2.4,13.4c-3.2,12.1-8.6,23.1-17.3,32.2c-2.3,2.4-5,4.4-9.3,4.8   c1.5-2.1,2.6-3.7,3.8-5.3c5-6.8,8.1-14.3,9.1-22.6c0.4-3.2,1.1-6,3.9-8.1c2.1-1.6,3.1-4,3.6-6.6c0.6-3.2-1.3-6-1.6-9.1   c-0.2-3.1,3.1-5.4,2.5-8.9c-2.7,0.6-3.2,3.3-5.1,4.5c-1.2,0.7-2.3,2.1-3.8,1.5c-1.6-0.6-1.3-2.3-1.3-3.7c0-0.6,0-1.1,0.1-1.7   c2.9-20.5-7.7-37.2-15.5-54.6c-0.6-1.3-1.8-1.8-3.2-1.5c-1.1,0.3-2.3,0.7-2.5,2c-0.3,1.6,0.8,2.3,2,2.9c1.6,0.7,2.6,2.1,3.5,3.6   c8.6,14.5,13.1,30,12.4,47c-0.1,3.4-1.1,6.1-4.1,7.8c-3.2,1.8-4.2,4.8-4.6,8.2c-0.4,4.7,2.4,7.8,5.8,10.2c3.1,2.2,3.5,4.5,2.2,8   c-4.5,12.3-11.4,22.8-21.6,30.9c-3.4,2.7-7.1,5.1-11.8,5.4c0.2-2.1,1.8-2.7,2.9-3.7c5.1-5.1,10.1-10.4,13.3-17   c1.9-4,4.3-7.7,6.8-11.2c4-5.5,3.7-11.2-1.9-15.2c-4.3-3-4.5-6.2-3-10.6c5.8-16.8,1.8-33-3.1-49.2c-0.5-1.8-1.7-2.7-3.5-1.9   c-1.9,0.9-1.1,2.3-0.3,3.6c1.9,3.3,3.5,6.8,4.4,10.6c3.4,13.3,2,26.4-1.7,39.4c-0.8,2.8-2.1,4.7-4.6,6.2c-7,4-8.3,11.6-3.4,18.4   c-2.7,0.5-4.8,2-6.8,3.9c-5.4,5.1-10.9,9.9-16.8,14.3c-10.3,7.6-21.3,13.6-34.2,15.2c-3.8,0.4-7.7,1.1-11.7,0.1   c0.4-0.6,0.4-0.9,0.6-1c1.3-0.5,2.6-1.1,4-1.5c23.3-7.7,42.7-20.8,57.4-40.6c1-1.4,3.6-3.3,2.3-4.3c-2-1.7-3.2,1.3-4.4,2.6   c-14,15.6-30.9,27.1-50.7,33.9c-11.5,4-23.4,6-35.5,2.5c-2.1-0.6-4.6-0.8-6.7-3.9c14.9,2.1,27.9-3.6,41.5-5.5   c5.5-0.7,10.6-2.8,12.2-8.5c1.4-5.3,5-7.6,9.3-10.1c15.4-9.1,28.4-20.7,35-38c2.3-6.1,3.6-12.5,4-19.1c0.1-1.2-0.1-2.6-1.4-2.8   c-1.8-0.3-1.3,1.5-1.4,2.4c-0.7,5.2-1.6,10.3-3.3,15.3c-6.6,19.4-21.4,31.2-38.4,40.9c-3.7,2.1-5.5-1.2-7.2-3.4   c-1.9-2.6,0.7-3.8,2.3-4.9c7.7-5.5,15.7-10.7,22.3-17.7c5.6-6,9.9-12.8,12.3-20.6c1.1-3.5-0.1-7.6,4-10c1.2-0.7,1.2-2.9,0.3-4.3   c-0.9-1.3-2.3-0.9-3.5-0.4c-1.7,0.7-2.2,2.1-1.9,3.8c0.3,1.5,1,3,0.4,4.6c-4.3,11.8-9.9,22.8-20.3,30.8   c-8.6,6.6-17.2,12.7-28.2,15.1c-8.3,1.8-12.4,8.9-10.7,16.1c1.7,7,1.7,7-5.5,8.1c-0.3,0-0.6,0.1-0.8,0.1   c-14.4,2.2-28.6,1.4-42.2-4.2c-1.4-0.6-3.3-0.8-3.8-2.9c2.8-0.6,5.3,0,7.8,0.2c13.9,1.4,27.4-0.4,40.4-5.7c1-0.4,2.5-0.6,2.2-2.1   c-0.3-1.3-1.6-2-3-1.9c-1,0-1.9,0.3-2.9,0.6c-9.4,2.2-19,3.3-28.7,2.7c-10.8-0.7-21.4-2.5-31.1-7.7c-2.8-1.5-5.6-3.2-7-6.5   c0.6-0.1,1.1-0.3,1.4-0.3c1.1,0.2,2.2,0.4,3.3,0.8c33.7,9.7,65.1,3.6,94.8-13.8c8.1-4.7,15.5-10.6,19.2-19.8c1-2.5,1.6-5.1,4-6.8   c1.3-1,1.9-2.6,0.8-4.2c-0.9-1.4-2.4-1.6-3.8-0.9c-1.6,0.8-2.3,2.4-1.5,3.9c1.5,2.8,0.2,4.8-1.4,6.9c-2.6,3.4-5.3,6.7-8.4,9.5   c-19.4,17.5-42.8,23.7-68.2,23.7c-17.2,0-33.5-4-48.2-13.2c-5.2-3.2-9.3-7.6-12.2-13.7c1.2,0.1,1.8,0.1,2.2,0.3   c0.9,0.4,1.9,0.7,2.7,1.3c11.6,8.8,25.3,11.9,39.3,13.9c26.3,3.8,51.1,0.1,73.3-15.7c2.2-1.5,3.6-3.3,4.6-5.2   c0-0.2-0.1-0.4-0.1-0.7c0,0,0,0-0.1-0.1c-0.2,0-0.5,0.1-0.7,0.1c-0.1,0-0.1,0-0.2,0c-0.5,0.4-0.9,0.7-1.4,1.1   c-0.8,0.5-1.8,1.1-2.9,1.4c-7.4,5.3-15.3,9.8-24.2,12c-30.8,7.6-59.6,2.1-86.5-14.2c-7.8-4.7-13.3-11.8-16.8-20.3   c-0.6-1.4-1.6-2.9-0.5-5c1.2,1.1,2.2,1.9,3,2.8c5.4,5.7,11.5,10.6,18.4,14.3c13.2,7,27.3,11,42.2,12.3c3.9,0.3,7,1.1,9,5.4   c3.4,7.2,14.4,7,18.1-0.1c1.6-3.2,3.8-4.6,7-5.3c6.6-1.4,12.8-3.8,18.5-7.3c1-0.6,2.9-1,1.8-2.7c-0.8-1.3-2.1-0.1-3,0.4   c-5.4,3-11.3,4.5-17.2,6.1c-3.8,1-6.4,0.3-9-2.6c-5.2-5.4-10.6-5.2-15.5,0.6c-1.7,2-3.3,2.6-5.9,2.2c-14.4-2.4-28.2-6.4-40.7-14.2   c-14-8.7-25.2-19.8-31.2-35.4c-1.7-4.4-2.4-9.1-1.4-15c3.1,5.5,5.5,10.1,8.3,14.4c9,14.1,22.7,22.3,37.4,29.1   c16.5,7.7,33.6,13,52.2,10.9c3.5-0.4,6.9-1.4,10.4-2.2c0.8-0.2,1.7-0.6,1.3-1.8c-0.2-0.8-1-0.9-1.7-0.8c-0.7,0-1.4,0.1-2.1,0.3   c-11,2.3-22,1.9-32.9-0.8c-21.1-5.1-38.2-16-50.3-34.4c-9-13.7-12.5-29.3-15.7-45c-0.1-0.7-0.5-1.7,1-2c1.2,1.4,1.3,3.3,1.6,5   c4.2,22,15.4,39.3,33.9,52c15.5,10.6,32.1,18.2,51.5,16.7c1.8-0.1,4.9,0.6,5-1.7c0.1-1.8-3-1.4-4.7-1.6c-25.3-3.4-45-16-60.1-36.4   c-0.5-0.7-1.6-1.4-0.8-2.6c1.8,0.1,3,1.4,4.4,2.3c8.1,4.9,16.2,10,24.3,14.9c7.2,4.3,14.9,7.5,23.1,9.7c2.6,0.7,4.3,0.7,5.8-0.8   c-0.1-0.5-0.2-0.9-0.4-1.4c0-0.1-0.1-0.2-0.1-0.2c-0.1-0.1-0.2-0.1-0.3-0.2c-0.6-0.3-1.3-0.7-1.8-1.1c-0.3-0.1-0.6-0.2-0.9-0.3   c-0.4-0.2-0.8-0.5-1.1-0.8c-0.4-0.2-0.9-0.5-1.3-0.8c-22.6-10.6-41.4-25.1-51.8-48.9c-4.6-10.5-9.7-20.8-11.2-32.4   c-1.8-14.5,0.9-28.5,6.2-41.9c1.4-3.6,2.7-7.4,5.7-11.2c0.9,4.1-0.1,7.1-1,10c-6,20.1-3.2,39.9,2.2,59.5   c3.8,14,9.2,27.4,19.2,38.4c8,8.7,17.9,14.2,29.3,17.1c0.8,0.2,1.6,0.4,2.2,0.7c0.6,0,1.3,0.2,1.9,0.5c0.1,0.1,0.2,0.1,0.3,0.2   c0.4-0.1,0.9-0.2,1.3-0.2c0.2,0,0.5-0.1,0.7-0.1c0.1-0.1,0.1-0.2,0.2-0.3c0-0.1,0-0.3,0-0.4c0.3-3.6-1.7-4.9-4.6-6   c-15.5-6.2-26.5-16.9-33-32.5c-5.9-14.3-9.9-29-10.9-44.4c-1.9-30.3,5.2-57.9,25.1-81.5c1.3-1.5,2.2-3.5,5-4   c-0.9,3.6-2.5,6.4-3.8,9.4c-11.8,26-16.1,53-10.7,81.2c4.3,22.7,15.1,42.3,30,59.7c1.6,1.2,3,2.6,4.4,4c0.8,0.6,1.6,1.2,2.4,1.8   c0.3,0,0.6,0.2,1,0.4c3.2,1.7,6.8,1.7,10.2,2.6c0.3-1.6-1-2.2-2-2.8c-18.1-11.8-27.5-29.8-33.9-49.5   c-11.1-33.9-5.5-66.4,10.3-97.5c8.2-16.2,20.3-28.9,36.2-37.9c1.3-0.7,2.6-2.1,4.5-1.4c-0.2,0.5-0.2,0.8-0.4,1   c-2,2.4-4.1,4.7-6.1,7c-12.2,14.1-21.5,29.8-26.8,47.9c-8.4,28.8-5.9,57.3,4,85.2c6.2,17.6,17.7,31.5,33.3,41.9   c1.9,1.3,4.6,4.4,6.6,1.8c2.5-3.1-1.5-4.9-3.4-6.6c-12.4-10.7-22.7-23-29.1-38.2c-8.5-19.9-8.8-40.3-5.4-61.3   c3.7-23.6,11.3-45.3,27.4-63.5c11.3-12.8,23.9-23.8,40.9-28.5c1.3-0.4,2.5-1.4,3.9-0.2c0,1.5-1.3,1.8-2.1,2.4   c-20.7,14.2-35.8,32.8-44.6,56.4c-0.7,2-2,3.3-3.8,4.3c-10.8,6-12.3,15.1-4,24.3c1.8,2,2.4,3.8,1.7,6.5   c-3.7,14.5-4.4,29.2-0.9,43.8c2.9,12.2,6.5,24.1,15.8,33.3c0.1,0.1,0.1,0.2,0.2,0.2c0.1,0.1,0.2,0.1,0.3,0.2   c0.3,0,0.6,0.1,0.8,0.1c0.2-0.1,0.3-0.2,0.5-0.3c0.1-0.1,0.2-0.3,0.3-0.3c0-0.2-0.1-0.4-0.1-0.7c-0.1-0.1-0.1-0.2-0.2-0.3   c-5.2-11.9-11.5-23.4-13.3-36.6c-1.7-12.6-1.7-25.2,1.4-37.6c0.6-2.5,1.7-4.5,4.6-5.6c10-3.9,12.1-7.2,11.5-18   c-0.1-2.5,0.5-4.3,2.4-6c3.9-3.3,7.7-6.7,11.4-10.2c2.6-2.5,4.6-2,6.9,0.3c2.6,2.7,3.4,5.3,0.6,8.5c-5.8,6.5-10.5,13.7-14,21.7   c-9.5,21.1-10.9,42.6-2.9,64.5c1.5,4,3.8,7.6,6.9,10.6c0.6,0.6,1.3,1.3,2.2,0.5c0.6-0.5,0.5-1.3,0.2-2c-0.6-1.4-1.3-2.8-2-4.2   c-4.1-8.5-6.8-17.4-7.3-26.9c-1.4-24.2,6.7-45,22.1-63.4c1.9-2.2,3.8-3.5,6.8-3.8c6.9-0.6,11.6-4.2,14-10.7c0.8-2,1.8-3.8,3.5-5.2   c12.8-10.9,26.6-20.2,42.2-26.7c19.7-8.1,39.9-10.5,60.8-5.7c1.6,0.4,4,0.4,3.5,2.7c-0.3,1.8-2.4,0.7-3.7,0.6   c-20.4-1.5-39.4,3-56.9,13.6c-2.8,1.7-5.7,2.9-9,3.4c-7.1,1.2-12.1,5.4-13.1,12.7c-0.8,5.6-3.7,8.7-8.1,11.6   c-14,9.1-25.4,20.8-33.8,35.3c-7,12.1-11.6,24.9-11.2,39.1c0.1,2.5,0,5.6,3.1,5.5c2.6-0.1,1.5-3.2,1.5-5c0.3-9.2,1.8-18,5.3-26.5   c8.2-20,23-34.4,40.2-46.7c2.9-2,4.9-2.1,7.9-0.1c6.6,4.5,13.7,4.3,18.9-0.1c5.3-4.4,6.7-11,3.3-18.5c-1.5-3.4-0.8-5,2.6-6.4   c13.9-5.9,28.4-8.9,43.4-8.9c12.7,0,25.2,1.6,37,6.7c2.2,1,4.6,1.9,6,4.3c-2.4,1.1-4.3-0.1-6.1-0.5c-11.6-2.8-23.3-3-35.1-1.6   c-2.9,0.3-4.4,1.5-4,4.6c0.3,3.1,1.9,4,4.9,3.8c9.2-0.6,18.4-0.2,27.6,1.2c16.9,2.6,32.3,8.5,45,20.4c1,1,2.8,1.6,2.4,4.2   c-1.5-0.7-2.9-1.2-4.2-1.9c-6.9-3.4-14-6.3-21.4-8.3c-33.7-9.1-66.6-5.7-98.9,6.3c-18.8,7-35.1,17.8-47.1,34.3   c-5.6,7.6-9.7,16-12.8,24.9c-0.6,1.7-0.7,3.6,1.3,4.4c2.2,0.9,2.1-1.3,2.5-2.5c8.7-27.1,27.8-44.2,53.4-54.7   c31-12.7,62.9-13.3,95.1-4.5c19.1,5.2,36,14.4,49.6,29c4.7,5,7.9,11,11.6,18c-4.9-1.8-7.4-4.6-10.2-6.9   c-17.2-14.5-36.9-23.6-58.8-28.1c-22.1-4.5-44-2.7-65.7,2.7c-18,4.4-33.9,12.6-46.8,26.3c-5.1,5.5-8.8,11.8-11.3,18.8   c-0.5,1.4-1,2.9,0.7,3.7c2,1,2.3-0.9,3-2c0.6-1,1-2,1.5-3c6-11.6,14.6-21,26-27.3c19.9-11.1,41.5-15.9,64.2-15.3   c31,0.8,57.8,12.7,81.4,32.4c15.6,13,27.5,28.5,32.6,48.6c0.4,1.5,1.4,3.1,0.5,4.8c-0.5-0.1-0.9-0.1-1-0.3   c-1.7-2.3-3.5-4.5-5.1-6.8c-18.7-26.9-43.2-45.8-75.1-54.5c-3.4-0.9-5.1-3-6.6-6c-5-9.6-14.3-11.5-22.6-4.7   c-2.8,2.3-5.7,3.3-9.3,3.4c-17.7,0.4-34.5,4.3-50.3,12.5c-4.5,2.4-8.8,5.2-12.3,9c-0.7,0.8-1.4,1.6-0.5,2.6   c0.8,0.8,1.6,0.2,2.3-0.2c1.5-0.9,2.9-1.8,4.4-2.7c16.5-10.3,34.6-15.2,54-16c4.2-0.2,6.8,0.8,7.8,5.1c0.6,2.3,1.7,4.5,3.5,6.2   c5.8,5.6,12.6,6.2,18.7,0.8c5.3-4.7,10.4-5,16.3-1.7c2.6,1.5,5.4,2.5,8,3.9c19.7,10.3,36.3,24,49.4,42c7.3,10.1,13,20.9,17.7,32.4   c0.9,2.2,1.9,3.8,4.8,3.9C451.5,239.5,451.5,239.7,451.1,230.9z M289.4,301.7c-0.5-4.1,1.9-4.9,5-5.2c3.4-0.3,2.8,2.5,2.9,4.4   c0.8,10.7-0.5,21.2-4.9,31.1c-0.9,2.1-0.8,2.1-3,3.7c-0.8-1.8,0.1-3.6,0.3-5.3C290.9,320.8,290.7,311.2,289.4,301.7z M268.9,310.4   c-0.1-2.5,1.2-4.5,3.9-4.5c2.9,0,4.6,1.9,4.9,5c-0.1,2.5-1.5,4.2-4.1,4.3C270.5,315.4,269.1,313.2,268.9,310.4z M243.1,331.1   c0-3.6,3.2-6.7,6.9-6.8c3.8,0,7.2,3.3,7.1,7c-0.1,3.7-3.2,6.6-6.9,6.7C246.2,338.2,243.1,335.1,243.1,331.1z M227.9,338.8   c4.2-0.1,7.6,3.1,7.7,7.3c0.1,4.2-3.2,7.6-7.4,7.6c-4,0-7.3-3.1-7.5-7.1C220.5,342.4,223.7,339,227.9,338.8z M203.5,375.1   c6.2-6.3,11.5-13.2,16.1-20.6c9.4,4.6,7.7,4,2.1,11.7c-9.3,12.7-21.5,21.1-37.1,24.1c-0.8,0.2-1.6,0.2-2.7-0.2   C189.1,385.1,197.2,381.4,203.5,375.1z M157.9,346.4c5.5,0,10.1,4.5,10,9.9c0,5.5-4.6,9.9-10.1,9.8c-5.6-0.1-9.9-4.5-9.7-10.1   C148.2,350.6,152.5,346.4,157.9,346.4z M120.1,304.4c3.6,0,6.6,2.9,6.6,6.3c0,3.3-3.2,6.1-6.9,6.1c-3.7-0.1-6.7-2.9-6.6-6.3   C113.3,307.1,116.4,304.4,120.1,304.4z M162.2,118.1c-0.2,4.6-4.4,8.3-9.1,8.1c-5-0.2-8.5-4.2-8.3-9.4c0.2-4.8,4.2-8.3,9.1-8   C159,109,162.5,112.9,162.2,118.1z M185,87.2c-0.3,1.8-1.5,3-2.8,4.1c-5,4.4-10,8.8-15,13.2c-2.1,1.9-4,3.2-6.6,1   c-2.6-2.1-2.1-4.4-0.7-6.8c9.8-17.1,22.2-32.1,38-44.1c10.6-8,22.3-13.9,35.4-16.9c4.3-1,5.4-1,8.5,0.2c-0.6,1.3-2,1.5-3.1,2   c-15.3,6.4-28.4,15.7-38.9,28.7c-2.2,2.7-4.5,5.5-7.4,7.6C188.5,79,185.8,82.5,185,87.2z M199.7,98c-5.3,0-9.4-4.2-9.4-9.4   c0-5,4.1-9.1,9.2-9.3c5.2-0.1,9.5,4,9.5,9.2C209.1,93.9,205,98,199.7,98z M281.4,44.2c-4.4,1.2-8.8,2.2-13.1,3.6   c-19.5,6.4-36.3,17.1-50.5,31.8c-2.7,2.8-4.4,3.1-7,0.2c-6-6.6-7.8-4.6,0.6-11.7c14.3-11.9,30-21.3,48.5-25c5-1,10.1-1.6,15.2-1.8   c2,0,4,0,5.9,0c0.9,0,2.2-0.1,2.4,1.2C283.6,43.9,282.3,43.9,281.4,44.2z M255.7,99.6c-5.2-0.1-9.3-4.3-9.4-9.5   c0-5.4,4.2-9.7,9.6-9.7c5.4,0,9.8,4.5,9.7,9.7C265.5,95.4,261,99.7,255.7,99.6z M338,156.7c-4.9,0.1-9-3.9-9.2-8.7   c-0.1-4.9,3.8-9,8.8-9.1c4.9-0.1,9,3.8,9.1,8.7C346.8,152.6,343,156.6,338,156.7z"></path>		<path class="st1" d="M425.7,239.4c-4.4,0-6.6-2.5-8.5-5.5c-7.6-11.8-16.3-22.8-26.6-32.4c-6-5.6-12.6-10.5-19.7-14.8   c-4.2-2.5-8-4.2-13-2.1c-4.3,1.7-8.6,0.5-11.4-3.3c-2.9-4-4.2-8.5-1.6-13.2c2.4-4.3,6.4-6.2,11.4-5.9c4.8,0.3,9,3.6,9.8,9.2   c0.9,6.3,4.6,9.2,9.7,12.1c22.1,12.2,39.5,29.2,52.2,51c0.7,1.2,1.9,2.4,1,3.9C428.2,239.8,426.5,239.3,425.7,239.4z M355.3,166.8   c-3.9-0.1-7,2.9-7,6.9c0,3.8,2.8,6.8,6.5,7c3.8,0.2,7.1-2.8,7.3-6.6C362.2,170.2,359.2,166.9,355.3,166.8z"></path>		<path class="st1" d="M313.1,184.6c28.3,0.4,52.2,11.1,72.7,30.2c6.8,6.3,13,13,18.5,20.4c0.7,1,2.2,1.9,1.2,3.3   c-0.8,1.2-2.3,0.9-3.5,0.8c-3.5-0.3-5.4-2.8-7.3-5.4c-10-13.8-22.6-24.9-37.4-33.4c-15.3-8.9-32-11.9-49.4-11.5   c-0.8,0-1.7,0.1-2.5,0.1c-1.2-0.1-2.9,0.6-2.9-1.3c0-1.7,1.3-2.9,3-3.1C308,184.4,310.6,184.6,313.1,184.6z"></path>		<path class="st1" d="M376,239.6c-2.8-0.1-4.8-1.2-6.5-2.7c-14.2-12.9-30.6-21.7-49.5-25.6c-1.7-0.4-3.7-0.8-3.3-3   c0.5-2.6,2.5-1.1,3.8-0.8c21.3,3.9,39.7,13.5,55.5,28.2c0.9,0.8,2.3,1.6,2,3C377.8,239.8,376.5,239.6,376,239.6z"></path>		<path class="st1" d="M321.9,164.3c4,0.3,8.8,0.7,13.6,1.2c1.7,0.2,4-0.1,3.6,2.9c-0.4,3.1-2.6,2.4-4.5,2.1   c-11.2-1.6-22.3-1.6-33.4,0.4c-4.6,0.8-9.1,2.1-13.6,3.1c-1.3,0.3-3,1.5-3.7-0.4c-0.7-1.9,0.8-3.1,2.6-3.7c7.8-2.7,15.8-4.3,24-5   C314,164.6,317.6,164.5,321.9,164.3z"></path>		<path class="st1" d="M308.4,83.7c0,5.8-4.8,10.6-10.6,10.5c-5.7,0-10.5-4.9-10.5-10.7c0-5.8,4.8-10.5,10.6-10.5   C303.7,73.2,308.4,77.9,308.4,83.7z M303.3,83.6c-0.1-3.2-2.6-5.5-5.8-5.4c-3.2,0.1-5.5,2.6-5.4,5.8c0.1,3.2,2.6,5.5,5.8,5.4   C301.1,89.3,303.4,86.8,303.3,83.6z"></path>		<path class="st1" d="M291.9,186.9c3.2,0.3,4.9,2.2,4.9,5.3c0,3-2.6,5.4-5.6,5c-3.2-0.3-4.9-2.4-4.7-5.5   C286.7,188.7,288.8,187,291.9,186.9z"></path>		<path class="st1" d="M272.5,183.9c-3.1-0.3-4.9-1.9-4.9-4.9c-0.1-3.3,1.8-5.1,5-5.1c3,0,4.8,1.8,4.9,4.8   C277.4,181.9,275.5,183.5,272.5,183.9z"></path>		<path class="st1" d="M192,193.9c0.1,3-1.5,4.4-4.7,4.2c-3-0.2-4.1-1.9-3.9-4.8c0.2-2.9,1.2-4.8,4.6-4.6   C191.4,188.8,192.2,190.8,192,193.9z"></path>		<path class="st1" d="M254.1,172.9c-0.3,2.9-1.9,4.5-4.6,4.5c-3,0-4.8-2-4.6-4.9c0.2-2.7,1.9-4.4,4.8-4.3   C252.5,168.4,253.9,170.1,254.1,172.9z"></path>		<path class="st1" d="M218.3,179.5c-0.3,2.7-1.3,4.8-4.1,4.8c-2.9,0-4.2-2.2-4.2-4.8c0-2.7,1.3-4.9,4.2-4.8   C217.1,174.8,218.1,177,218.3,179.5z"></path>		<path class="st1" d="M202.3,186.7c0,2.7-1.1,4.6-3.7,4.5c-3.3,0-4.7-2.5-4.8-5.4c-0.1-2.4,1.1-4.2,3.8-4   C200.8,182.1,202,184.2,202.3,186.7z"></path>		<path class="st1" d="M209.5,196.9c0.3-2.7,1.5-4.7,4.4-4.6c2.6,0.1,3.5,2,3.4,4.4c-0.2,2.5-1.6,4.3-4.2,4.4   C210.6,201.1,209.6,199.3,209.5,196.9z"></path>		<path class="st1" d="M301.4,210.4c0.1-2.8,1.3-4.9,4.2-4.9c2.4,0,3.4,1.9,3.4,4c0,2.6-1.1,4.8-4,5.1   C302.2,214.8,301.7,212.5,301.4,210.4z"></path>		<path class="st1" d="M242.9,180.5c-0.4,2.3-1.8,3.9-4.2,3.8c-2.3-0.1-4-1.5-4-4c0-2.5,1.6-3.9,4.1-3.9   C241.2,176.5,242.6,178,242.9,180.5z"></path>		<path class="st1" d="M172.1,227.7c0.1-2.6,1-4.4,3.4-4.5c2.8-0.1,4,2,4,4.5c0,2.2-1.2,3.9-3.6,3.9   C173.3,231.5,172.5,229.5,172.1,227.7z"></path>		<path class="st1" d="M293.9,209c-0.2,2.4-1.6,4.1-4.2,4.4c-2.4,0.3-3.3-1.5-3.2-3.5c0.1-2.6,1.7-4.2,4.3-4.4   C293,205.3,293.8,206.9,293.9,209z"></path>		<path class="st1" d="M253.3,184.6c2.4,0.3,3.6,1.8,3.7,4c0,2.2-1,4-3.4,4.1c-2.4,0.1-3.5-1.7-3.6-3.9   C250,186.7,251,185,253.3,184.6z"></path>		<path class="st1" d="M189.5,213.8c0,2-0.6,3.9-2.9,3.9c-2.7,0-3.6-2.1-3.6-4.4c0-1.8,0.7-3.6,2.7-3.7   C188.2,209.5,189.3,211.4,189.5,213.8z"></path>		<path class="st1" d="M236.5,228.5c0,1.5-0.5,2.9-2.2,2.9c-2,0-2.7-1.6-2.7-3.3c0-1.4,0.5-2.7,2.1-2.8   C235.5,225.3,236.4,226.7,236.5,228.5z"></path>		<path class="st1" d="M261.4,203.9c-2.4-0.4-3.7-1.7-3.5-4c0.2-2.2,1.6-3.4,3.7-3.2c2.3,0.2,3.6,1.6,3.5,4   C264.9,202.8,263.3,203.7,261.4,203.9z"></path>		<path class="st1" d="M231.8,189.7c-0.4,2.2-1.7,3.6-4,3.4c-2.2-0.2-3.3-1.7-3.2-3.7c0.1-2.3,1.6-3.6,4-3.4   C230.6,186.1,231.6,187.5,231.8,189.7z"></path>		<path class="st1" d="M244.6,195c-0.4,2.5-1.7,3.8-4,3.7c-2.2-0.1-3.2-1.7-3.1-3.8c0.1-2.1,1.5-3.4,3.6-3.3   C243.2,191.8,244.3,193.1,244.6,195z"></path>		<path class="st1" d="M273.6,198.1c-2.4-0.1-3.6-1.3-3.7-3.4c-0.1-2.1,1-3.6,3.2-3.6c2.2-0.1,3.8,1.1,3.8,3.5   C276.9,196.8,275.5,197.7,273.6,198.1z"></path>		<path class="st1" d="M203,205.8c-0.2,2.1-1.1,3.4-3.2,3.2c-2.4-0.2-3.3-2.1-3.3-4.2c0-1.7,1.1-3.1,2.9-2.9   C201.7,202.1,202.8,203.7,203,205.8z"></path>		<path class="st1" d="M192.2,237.8c-2.3-0.1-3.3-1.3-3.3-3.5c0-1.9,1-3.2,3.1-3.2c2.2-0.1,3.5,1,3.5,3.2   C195.6,236.6,194.4,237.8,192.2,237.8z"></path>		<path class="st1" d="M225.1,240.9c-0.2,2-1,3.6-3.3,3.5c-2-0.1-2.8-1.7-2.7-3.6c0.1-2,1-3.7,3.3-3.6   C224.4,237.4,225,239,225.1,240.9z"></path>		<path class="st1" d="M274.8,205.7c2.4,0.1,3.5,1.3,3.4,3.5c-0.1,2.2-1.4,3.3-3.6,3.2c-2-0.1-3-1.2-3-3.3   C271.6,206.8,272.7,205.7,274.8,205.7z"></path>		<path class="st1" d="M198.8,217.3c2.1,0.6,3.3,2,3.2,4.2c-0.1,1.6-1.2,2.6-2.9,2.4c-2.2-0.2-3.2-1.7-3.2-3.7   C195.9,218.5,196.8,217.4,198.8,217.3z"></path>		<path class="st1" d="M174,241.3c2.1,0.6,3.3,2,3.2,4.2c-0.1,1.6-1.2,2.6-2.9,2.4c-2.2-0.2-3.2-1.7-3.2-3.7   C171.1,242.4,172,241.3,174,241.3z"></path>		<path class="st1" d="M142,278.7c2.3,0.3,3.7,1.6,3.7,3.8c0,1.3-0.5,3.2-2.3,2.8c-2.2-0.4-3.6-2.3-3.9-4.5   C139.2,279.3,140.7,278.9,142,278.7z"></path>		<path class="st1" d="M152.3,295.6c-1.8-0.1-3-0.9-3.1-2.8c-0.1-2.1,0.8-3.3,2.9-3.3c1.8,0,3,0.9,3.1,2.8   C155.4,294.4,154.3,295.4,152.3,295.6z"></path>		<path class="st1" d="M176.2,265.6c-1.8-0.1-3-0.9-3.1-2.8c-0.1-2.1,0.8-3.3,2.9-3.3c1.8,0,3,0.9,3.1,2.8   C179.3,264.4,178.2,265.4,176.2,265.6z"></path>		<path class="st1" d="M289.7,222.5c0,1.9-1.1,3-2.8,3.2c-2,0.2-3.2-0.9-3.3-2.9c-0.1-1.8,0.8-3,2.7-3.1   C288.4,219.5,289.4,220.7,289.7,222.5z"></path>		<path class="st1" d="M215.6,209.9c0,1.3-0.2,2.8-1.9,2.8c-2-0.1-3.5-1.4-3.5-3.5c0-1.6,0.8-3.2,2.8-3   C215.3,206.3,215.5,208.1,215.6,209.9z"></path>		<path class="st1" d="M268.3,212.7c-0.1,1.7-0.8,3.2-2.7,3.3c-2,0.1-2.6-1.5-2.6-3.2c0-1.7,0.6-3.3,2.5-3.4   C267.4,209.4,268,211,268.3,212.7z"></path>		<path class="st1" d="M258.3,225.3c-0.1,1.7-0.8,3.2-2.7,3.3c-2,0.1-2.6-1.5-2.6-3.2c0-1.7,0.6-3.3,2.5-3.4   C257.4,222,258,223.6,258.3,225.3z"></path>		<path class="st1" d="M242.6,214c-0.1,1.7-0.8,3.2-2.7,3.3c-2,0.1-2.6-1.5-2.6-3.2c0-1.7,0.6-3.3,2.5-3.4   C241.8,210.7,242.4,212.3,242.6,214z"></path>		<path class="st1" d="M228.6,201.4c-0.2,1.8-0.9,3.2-2.9,3.1c-2-0.1-2.6-1.5-2.6-3.2c0-1.8,0.9-3.1,2.8-3   C227.9,198.4,228.5,199.9,228.6,201.4z"></path>		<path class="st1" d="M212.4,223.6c-0.2,1.6-1.1,2.3-2.6,2.1c-1.7-0.3-2.8-1.4-2.8-3.2c0-1.5,0.8-2.5,2.3-2.3   C211.3,220.4,212.2,221.7,212.4,223.6z"></path>		<path class="st1" d="M196.1,290.1c-1.5-0.1-2.4-0.9-2.4-2.4c0-1.5,0.8-2.4,2.3-2.5c1.7-0.1,2.7,0.8,2.6,2.6   C198.5,289.4,197.5,290,196.1,290.1z"></path>		<path class="st1" d="M141.5,264.1c-0.2,1.5-1.1,2.4-2.6,2.3c-1.7-0.1-3.1-0.9-3-2.8c0.1-1.5,1.3-2.2,2.7-2.1   C140.1,261.7,141.2,262.6,141.5,264.1z"></path>		<path class="st1" d="M224,264.9c-0.3,1.8-1.3,2.6-2.9,2.5c-1.5-0.1-2.1-1.2-2.1-2.6c0-1.5,0.8-2.3,2.4-2.3   C223,262.4,223.8,263.4,224,264.9z"></path>		<path class="st1" d="M196.1,253.6c-0.3,1.8-1.3,2.6-2.9,2.5c-1.5-0.1-2.1-1.2-2.1-2.6c0-1.5,0.8-2.3,2.4-2.3   C195.2,251.1,196,252.1,196.1,253.6z"></path>		<path class="st1" d="M191.8,273.6c-0.3,1.8-1.3,2.6-2.9,2.5c-1.5-0.1-2.1-1.2-2.1-2.6c0-1.5,0.8-2.3,2.4-2.3   C190.8,271.1,191.6,272.1,191.8,273.6z"></path>		<path class="st1" d="M225.3,253.2c-0.1,1.8-1.2,2.5-2.5,2.5c-1.5,0-2.8-0.6-2.9-2.3c-0.1-1.6,1.1-2.1,2.5-2.2   C224,251,225,251.8,225.3,253.2z"></path>		<path class="st1" d="M209.6,237.5c-0.1,1.8-1.2,2.5-2.5,2.5c-1.5,0-2.8-0.6-2.9-2.3c-0.1-1.6,1.1-2.1,2.5-2.2   C208.3,235.4,209.4,236.1,209.6,237.5z"></path>		<path class="st1" d="M160.5,280.2c-0.6,1.5-1.1,3.1-2.9,3.2c-1.4,0-2.2-1.1-2.3-2.5c-0.1-1.6,0.8-2.3,2.3-2.3   C158.7,278.6,160.1,278.6,160.5,280.2z"></path>		<path class="st1" d="M179.2,293c-1.4,0-2.3-0.8-2.4-2.3c-0.1-1.7,0.9-2.7,2.6-2.6c1.5,0.1,2.3,1,2.3,2.5   C181.7,292.2,180.9,293,179.2,293z"></path>		<path class="st1" d="M165.4,286.2c0.8,0.4,2.6-0.3,2.3,1.5c-0.2,1.2-0.6,3-2.4,3c-1.7,0-2.3-1.4-2.3-3   C163,286.2,164.2,286.1,165.4,286.2z"></path>		<path class="st1" d="M227.7,211.8c-0.1,1.4-0.6,2.6-2.2,2.5c-1.3-0.1-1.9-1.1-2-2.3c-0.1-1.4,0.5-2.7,2-2.7   C227,209.1,227.6,210.4,227.7,211.8z"></path>		<path class="st1" d="M145.2,276.4c-1.5-0.2-2.5-1-2.6-2.6c0-1.1,0.6-1.9,1.8-1.8c1.6,0.1,2.6,1,2.7,2.6   C147.1,275.7,146.5,276.4,145.2,276.4z"></path>		<path class="st1" d="M135,251.4c1.3,0.1,2.5,0.5,2.5,2.1c0,1.4-1,1.9-2.2,1.8c-1.2,0-2.2-0.6-2.4-1.9   C132.8,252.1,133.7,251.6,135,251.4z"></path>		<path class="st1" d="M213.5,281.9c-0.2,1.4-0.3,3-2.1,3c-1.2,0-1.5-1.1-1.5-2.1c0.1-1.4,0.2-3,1.9-3.2   C213.3,279.4,213.3,280.8,213.5,281.9z"></path>		<path class="st1" d="M216,273.1c-0.1,1.3-0.7,2.6-2,2.9c-1.8,0.4-1.4-1.2-1.5-2.2c-0.1-1.1-0.1-2.5,1.3-2.7   C215,270.9,215.8,271.7,216,273.1z"></path>		<path class="st1" d="M204.6,263.5c-0.1,1.3-0.7,2.6-2,2.9c-1.8,0.4-1.4-1.2-1.5-2.2c-0.1-1.1-0.1-2.5,1.3-2.7   C203.7,261.3,204.5,262.2,204.6,263.5z"></path>		<path class="st1" d="M276.7,220c-0.2,1.3-0.5,2.6-2.1,2.7c-1.3,0-1.4-1.2-1.4-2.2c0-1.2,0.3-2.3,1.7-2.4   C276.3,218,276.6,218.9,276.7,220z"></path>		<path class="st1" d="M251.1,206.5c-0.2,1.3-0.5,2.6-2.1,2.7c-1.3,0-1.4-1.2-1.4-2.2c0-1.2,0.3-2.3,1.7-2.4   C250.6,204.5,251,205.5,251.1,206.5z"></path>		<path class="st1" d="M225,225.7c-0.2,1.3-0.5,2.6-2.1,2.7c-1.3,0-1.4-1.2-1.4-2.2c0-1.2,0.3-2.3,1.7-2.4   C224.6,223.6,224.9,224.6,225,225.7z"></path>		<path class="st1" d="M208.9,250.4c-0.2,1.3-0.5,2.6-2.1,2.7c-1.3,0-1.4-1.2-1.4-2.2c0-1.2,0.3-2.3,1.7-2.4   C208.5,248.4,208.8,249.4,208.9,250.4z"></path>	</g>	<path class="st1" d="M397.4,286.2c0,6.6-0.2,12.7,0,18.9c0.2,4.7,0.1,9.5,0.2,14.2c0,12.1,0,24.2,0,36.3c0,4.6,0.5,4.1-4.3,4.2  c-3.5,0-7-0.1-10.6,0c-1.6,0-2.2-0.6-2.1-2.1c0.1-0.7,0-1.3,0-2c0-28.4,0-56.8,0-85.2c0-0.6,0-1.1,0-1.7c0.1-2.5,0.1-2.5,2.7-2.5  c5.6,0,11.2,0,16.8,0c1.6,0,2.6,0.6,3.5,1.9c9.4,14.1,18.9,28.1,28.2,42.3c5.1,7.8,9.5,16.1,13.5,24.6c0.2,0.5,0.5,0.9,1,1.8  c0.5-1.5,0.3-2.7,0.2-3.8c-0.9-11.1-1.1-22.2-1.1-33.3c0-10.2,0-20.5,0-30.7c0-2.7,0-2.7,2.8-2.7c4.1,0,8.1,0,12.2,0  c1.3,0,2.1,0.4,2,1.9c-0.1,0.7,0,1.3,0,2c0,28.5,0,57,0,85.5c0,0.8,0,1.5,0,2.3c0.1,1.2-0.5,1.8-1.8,1.8c-5.3,0-10.6-0.1-15.8,0  c-1.7,0-2.3-1.1-3-2.2c-3.3-5.1-6.7-10.1-9.9-15.2c-9.4-14.5-19.2-28.7-27.6-43.8C402,294.6,399.8,290.5,397.4,286.2z"></path>	<path class="st1" d="M548.9,337c-1-9.6-1.3-18.9-1.3-28.3c0-13.1,0-26.2,0-39.3c0-3.1,0-3.1,3-3.1c3.9,0,7.7,0,11.6,0  c1.5,0,2.3,0.4,2.2,2.1c-0.1,0.7,0,1.3,0,2c0,28.5,0,57,0,85.5c0,0.1,0,0.2,0,0.3c0,3.9,0.2,3.6-3.6,3.6c-4.5,0-9,0-13.5,0  c-1.3,0-2.2-0.3-3-1.5c-14-21.7-29-42.8-41.4-65.6c-1.1-2.1-2.2-4.2-3.6-6.3c-0.6,2.3-0.2,4.5-0.1,6.7c0.2,7.9,0.4,15.8,0.4,23.8  c0.1,13.1,0,26.2,0,39.3c0,0.7,0,1.3,0,2c0,1.1-0.4,1.6-1.6,1.6c-4.5,0-9,0-13.5,0c-1.1,0-1.6-0.5-1.6-1.6c0-0.8,0-1.5,0-2.3  c0-28.6,0-57.2,0-85.9c0-0.7,0-1.3,0-2c-0.1-1.3,0.6-1.7,1.8-1.7c6.1,0,12.1,0.1,18.2,0c1.8,0,2.4,1.3,3.2,2.4  c7.1,10.5,14,21.1,21.2,31.5c5.8,8.5,11.2,17.2,15.9,26.2c1.4,2.7,2.7,5.5,4.1,8.3C547.6,335.5,547.7,336.4,548.9,337z"></path>	<path class="st1" d="M628.5,361.4c-10-0.1-19-2-27.1-6.9c-9.6-5.8-16.1-14.2-19.4-25c-3.5-11.5-3.3-23.1,1-34.3  c6.5-17.1,19.4-26.8,37.2-29.8c9.5-1.6,18.9-0.9,28,2.5c14.2,5.2,23.5,15.2,27.6,29.7c3.2,11.1,2.9,22.3-1.1,33.1  c-6.1,16.8-18.5,26.2-35.8,29.8C635.3,361.1,631.6,361.2,628.5,361.4z M658.8,312.5c0.1-7-1.6-13.9-5.4-20.3  c-11.2-18.7-39.2-18-49.6,0.8c-3.7,6.6-5.2,13.8-5.1,21.2c0.2,7.5,2,14.6,6.4,20.8c12,17.1,38,16.2,48.6-1.8  C657.4,327,658.8,320.2,658.8,312.5z"></path>	<path class="st1" d="M1143.5,312.8c0-14.2,0-28.4,0-42.6c0-0.8,0-1.5,0-2.3c0-1.1,0.4-1.7,1.5-1.7c5,0,9.9,0,14.9,0  c1.1,0,1.6,0.5,1.6,1.6c0,0.8,0,1.5,0,2.3c0,10,0,20,0,30c0,2.7,0,2.8,2.7,2.8c13.2,0,26.4,0,39.6,0c2.6,0,2.6-0.1,2.6-2.8  c0-9.9,0-19.8,0-29.7c0-0.8,0.1-1.5,0-2.3c-0.1-1.5,0.6-1.9,2-1.9c1.9,0,3.7,0,5.6,0c2.8,0,5.5,0.1,8.3,0c1.8-0.1,2.4,0.7,2.2,2.3  c-0.1,0.5,0,1.1,0,1.6c0,28.5,0,57,0,85.5c0,4.7,0.2,3.9-4.1,4c-3.3,0-6.6,0-9.9,0c-4.5,0-4,0.3-4-4.2c0-11,0-22,0-33  c0-0.8,0-1.5,0-2.3c0.1-1.2-0.5-1.8-1.7-1.8c-0.7,0-1.3,0-2,0c-12.4,0-24.9,0-37.3,0c-0.8,0-1.5,0-2.3,0c-1.1,0-1.6,0.6-1.6,1.6  c0,0.8,0,1.5,0,2.3c0,11.1,0,22.2,0,33.3c0,0.8,0,1.5,0,2.3c0,1.1-0.4,1.6-1.5,1.6c-5,0-9.9,0-14.9,0c-1.1,0-1.6-0.6-1.5-1.6  c0-0.9,0-1.8,0-2.6C1143.5,341.2,1143.5,327,1143.5,312.8z"></path>	<path class="st1" d="M857.1,359.7c-5.8,0-11.7-0.1-17.5,0c-1.9,0-2.1-1.2-2.5-2.4c-2.6-7.3-5.1-14.5-7.7-21.8c-1-2.9-1-2.9-4.1-2.9  c-9,0-18,0-27.1,0c-3,0-3,0-3.9,2.8c-2.4,7.3-4.9,14.6-7.2,21.9c-0.6,1.8-1.3,2.4-3.2,2.4c-5.3-0.1-10.5,0-15.7,0  c-0.8-1.1-0.1-1.9,0.1-2.7c10.4-29.4,20.8-58.9,31.2-88.3c0.6-1.8,1.5-2.6,3.5-2.5c6,0.1,12.1,0.1,18.2,0c1.8,0,2.8,0.4,3.4,2.2  c10.8,29.8,21.6,59.5,32.4,89.3C857.2,358.2,857.5,358.7,857.1,359.7z M811.7,280.6c-1,0.5-1,1-1.2,1.6c-1.5,5.3-2.9,10.6-4.8,15.8  c-2.2,6.3-4.4,12.7-6.6,19c-0.7,1.9-0.6,2.1,1.4,2.1c7.4,0,14.7,0,22.1,0c1.9,0,2.1-0.4,1.5-2.2C819.9,304.8,815.3,293,811.7,280.6  z"></path>	<path class="st1" d="M1389.3,359.7c-6,0-12,0-17.9,0c-1.4,0-1.8-0.9-2.2-2c-2.1-6-4.3-12-6.4-18c-0.6-1.8-1.3-3.5-1.9-5.3  c-0.4-1.2-1-1.8-2.4-1.8c-9.9,0-19.8,0.1-29.7,0c-1.8,0-2.1,1.2-2.5,2.4c-2.4,7.2-4.7,14.4-7.2,21.6c-1.2,3.5-0.6,3-4.3,3.1  c-5,0-10.1,0-15.1,0c-0.2-1.3,0.3-2.2,0.6-3.1c10.3-29.1,20.6-58.2,30.9-87.4c1-3,1.1-3,4.2-3c5.7,0,11.4,0,17.2,0  c3.1,0,3.1,0,4.2,3c10.2,27.9,20.3,55.8,30.4,83.7C1388,355,1389.1,357.1,1389.3,359.7z M1343.3,280.4  c-3.4,13.1-8.6,25.5-12.7,38.5c8.9,0,17.4,0,26.3,0C1352.3,305.8,1347.4,293.3,1343.3,280.4z"></path>	<path class="st1" d="M975,313.2c0-14.3,0-28.6,0-42.9c0-0.8,0-1.5,0-2.3c0-1.1,0.4-1.6,1.5-1.7c0.8,0,1.5,0,2.3,0  c17.4,0,34.8,0,52.2,0c0.7,0,1.3,0,2,0c1.2-0.1,1.8,0.5,1.8,1.7c0,3.7,0,7.5,0,11.2c0,1.1-0.6,1.6-1.6,1.5c-0.8,0-1.5,0-2.3,0  c-11.1,0-22.2,0-33.3,0c-0.8,0-1.5,0.1-2.3,0c-1.7-0.1-2.3,0.7-2.2,2.4c0.1,5.2,0,10.3,0,15.5c0,5.4,0,5.4,5.4,5.4c10,0,20,0,30,0  c0.8,0,1.5,0,2.3,0c1.2-0.1,1.8,0.4,1.8,1.7c0,3.7,0,7.5,0,11.2c0,1.1-0.5,1.6-1.6,1.6c-0.8,0-1.5,0-2.3,0c-10.5,0-20.9,0-31.4,0  c-0.7,0-1.3,0.1-2,0c-1.7-0.2-2.4,0.5-2.3,2.2c0.1,3.2,0,6.4,0,9.6c0,4,0,7.9,0,11.9c0,2.7,0.1,2.7,2.8,2.7c10.5,0,20.9,0,31.4,0  c2.6,0,5.3,0,7.9,0c1.4,0,2,0.5,2,1.9c-0.1,3.6-0.1,7.3,0,10.9c0,1.5-0.7,1.9-2,1.9c-0.5,0-1.1,0-1.7,0c-18.3,0-36.5,0-54.8,0  c-0.2,0-0.4,0-0.7,0c-2.8-0.1-2.8-0.1-2.8-3C975,342.2,975,327.7,975,313.2z"></path>	<path class="st1" d="M727.6,342.3c0.4-0.9,0.7-1.4,0.8-1.9c6-21.3,14.4-41.8,21.7-62.6c1.1-3.1,2.4-6.2,3.3-9.3  c0.6-1.9,1.6-2.3,3.4-2.2c4.5,0.1,9,0,13.5,0c2.9,0,2.9,0.1,1.9,2.7c-4.6,12-9.2,24-13.8,36c-6.6,17.1-13.2,34.3-19.8,51.4  c-1.4,3.7-0.7,3.3-4.9,3.3c-4.7,0-9.5,0-14.2,0c-2.9,0-2.9,0-3.9-2.8c-6.4-18-12.8-36-19.3-54c-3.9-10.9-7.7-21.7-11.6-32.6  c-0.3-0.7-0.5-1.5-0.8-2.2c-0.5-1.3-0.1-1.8,1.3-1.8c4,0,7.9-0.1,11.9,0c7.1,0.1,5.4-1.3,7.6,5.4c6.6,19.7,13.6,39.2,19.6,59.1  C725.5,334.5,726.5,338.2,727.6,342.3z"></path>	<path class="st1" d="M1101,361.4c-10.9-0.1-21.2-1.7-30.6-6.9c-12.7-7-20-17.9-22.1-32.2c-1.7-11.4-0.3-22.4,5.5-32.6  c6.7-11.8,17.1-19.1,30-22.6c13.7-3.8,27.4-3.4,41,0.6c0.4,0.1,0.8,0.2,1.3,0.4c2.6,1,2.6,1,1.8,3.9c-0.8,3-1.7,5.9-2.5,8.9  c-0.7,2.4-0.8,2.4-3.1,1.6c-7.1-2.6-14.5-3.7-22-3.2c-9,0.6-17.3,3.1-24,9.5c-5.2,4.9-8,11-9.1,17.9c-1,6.2-0.7,12.3,1.3,18.2  c3.8,10.9,11.6,17.4,22.6,20.2c10.4,2.6,20.7,1.7,30.9-1.5c2.8-0.9,2.8-0.9,3.5,2c0.7,2.8,1.3,5.6,1.9,8.4c0.6,2.5,0.6,2.7-2,3.6  c-5.4,2-11.1,2.9-16.8,3.4C1105.9,361.2,1103.3,361.2,1101,361.4z"></path>	<path class="st1" d="M916.1,320.2c0-11.7,0-23.3,0-35c0-0.8-0.1-1.5,0-2.3c0.1-1.5-0.6-1.9-2-1.9c-3,0-5.9,0-8.9,0  c-5.4,0-10.8,0-16.2,0c-2.8,0-2.8,0-2.9-2.7c0-3.4,0-6.8,0-10.2c0-1.2,0.4-1.9,1.7-1.8c0.8,0,1.5,0,2.3,0c23.3,0,46.7,0,70,0  c0.6,0,1.1,0,1.7,0c2.4,0.1,2.4,0.1,2.5,2.4c0,3.2,0,6.4,0,9.6c0,2.7,0,2.8-2.7,2.8c-7.7,0-15.4,0-23.1,0c-0.8,0-1.5,0.1-2.3,0  c-1.5-0.1-2.3,0.4-2.1,2c0.1,0.8,0,1.5,0,2.3c0,23.3,0,46.7,0,70c0,0.9,0,1.8,0,2.6c0.1,1.3-0.6,1.7-1.8,1.7c-4.8,0-9.7,0-14.5,0  c-1.1,0-1.6-0.4-1.6-1.6c0-0.8,0-1.5,0-2.3C916.1,344,916.1,332.1,916.1,320.2z"></path>	<path class="st1" d="M360.4,313.1c0,14.2,0,28.4,0,42.6c0,0.8,0,1.5,0,2.3c0,1.2-0.5,1.8-1.7,1.8c-4.8,0-9.7,0-14.5,0  c-1.2,0-1.8-0.5-1.8-1.8c0-0.8,0-1.5,0-2.3c0-28.5,0-57,0-85.5c0-0.1,0-0.2,0-0.3c0.1-3.4-0.7-3.6,3.6-3.6c3.8,0,7.7,0,11.5,0  c2.9,0,2.9,0,2.9,2.9c0,12.1,0,24.2,0,36.3C360.4,308,360.4,310.5,360.4,313.1z"></path>	<path class="st1" d="M1421,313.2c0,14.1,0,28.2,0,42.2c0,0.8,0,1.5,0,2.3c0.1,1.3-0.3,2-1.8,2c-4.7-0.1-9.5,0-14.2,0  c-1.2,0-1.9-0.4-1.8-1.7c0-0.7,0-1.3,0-2c0-28.7,0-57.4,0-86.1c0-3.4-0.7-3.7,3.5-3.7c3.8,0,7.7,0,11.5,0c2.7,0,2.8,0.1,2.8,2.7  c0,7.4,0,14.7,0,22.1C1421,298.4,1421,305.8,1421,313.2z"></path>	<circle class="st3" cx="1263.1" cy="359.6" r="17.4"></circle></g></svg>