<?xml version="1.0" encoding="UTF-8"?> <svg xmlns="http://www.w3.org/2000/svg" xmlns:v="https://vecta.io/nano" viewBox="0 0 142.8 74.5" fill="#801517"><path d="M.3 64.3h1.1L5 69.8l3.7-5.5h1.1v10H8.7v-8.1L5 71.6h0l-3.6-5.4v8.1H.3zm15.3 0h1.1v9h5.6v1h-6.7zm22.5 10.1c-.8 0-1.5-.1-2.2-.4s-1.3-.7-1.9-1.2l.7-.8c.5.5 1 .8 1.6 1.1.5.2 1.1.3 1.8.3s1.2-.2 1.6-.5.6-.7.6-1.2h0c0-.2 0-.4-.1-.6s-.2-.4-.4-.5c-.2-.2-.5-.3-.8-.4s-.8-.2-1.3-.4c-.6-.1-1.1-.3-1.5-.4-.4-.2-.8-.4-1-.6-.3-.2-.5-.5-.6-.8s-.2-.7-.2-1.1h0c0-.4.1-.7.2-1.1.2-.3.4-.6.7-.9l1-.6c.4-.1.8-.2 1.3-.2.7 0 1.4.1 1.9.3s1.1.5 1.6.9l-.7.9c-.5-.4-.9-.7-1.4-.8-.5-.2-1-.3-1.5-.3-.7 0-1.2.2-1.6.5s-.6.7-.6 1.1h0c0 .2 0 .4.1.6s.2.4.4.5c.2.2.5.3.8.4l1.4.4a6.5 6.5 0 0 1 2.5 1c.5.4.8 1 .8 1.8h0c0 .4-.1.8-.3 1.2-.2.3-.4.6-.7.9-.3.2-.7.4-1.1.6-.2.3-.6.3-1.1.3m13.3.1c-.8 0-1.4-.1-2.1-.4-.6-.3-1.2-.6-1.6-1.1s-.8-1-1-1.6-.4-1.3-.4-2h0c0-.7.1-1.3.4-2 .2-.6.6-1.2 1-1.6.4-.5 1-.8 1.6-1.1s1.3-.4 2.1-.4 1.4.1 2.1.4c.6.3 1.2.6 1.6 1.1s.8 1 1 1.6.4 1.3.4 2-.1 1.3-.4 2c-.2.6-.6 1.2-1 1.6-.4.5-1 .8-1.6 1.1-.7.2-1.4.4-2.1.4m0-1.1c.6 0 1.1-.1 1.6-.3a2.73 2.73 0 0 0 1.2-.9c.3-.4.6-.8.8-1.3s.3-1 .3-1.6h0c0-.6-.1-1.1-.3-1.6s-.5-.9-.8-1.3-.8-.7-1.2-.9c-.5-.2-1-.3-1.6-.3s-1.1.1-1.6.3a2.73 2.73 0 0 0-1.2.9c-.3.4-.6.8-.8 1.3s-.3 1-.3 1.6h0c0 .6.1 1.1.3 1.6s.5.9.8 1.3c.4.4.8.7 1.2.9.5.2 1 .3 1.6.3m10.4-9.1h1.1v9h5.6v1h-6.7zm15.8 10.1c-.6 0-1.2-.1-1.7-.3s-.9-.5-1.3-.8c-.4-.4-.6-.8-.8-1.4-.2-.5-.3-1.2-.3-1.9v-5.8h1.1v5.7c0 1.1.3 1.9.8 2.5s1.3.9 2.2.9 1.7-.3 2.2-.8.8-1.4.8-2.5v-5.8h1.1V70c0 .7-.1 1.4-.3 1.9-.2.6-.5 1-.8 1.4-.4.4-.8.6-1.3.8-.5.3-1.1.3-1.7.3m12.4-9h-3.3v-1.1h7.8v1.1h-3.4v8.9H90zm9.7-1.1h1.1v10h-1.1zm11.6 10.2c-.8 0-1.4-.1-2.1-.4-.6-.3-1.2-.6-1.6-1.1s-.8-1-1-1.6-.4-1.3-.4-2h0c0-.7.1-1.3.4-2 .2-.6.6-1.2 1-1.6.4-.5 1-.8 1.6-1.1s1.3-.4 2.1-.4 1.4.1 2.1.4c.6.3 1.2.6 1.6 1.1s.8 1 1 1.6.4 1.3.4 2-.1 1.3-.4 2c-.2.6-.6 1.2-1 1.6-.4.5-1 .8-1.6 1.1-.6.2-1.3.4-2.1.4m.1-1.1c.6 0 1.1-.1 1.6-.3a2.73 2.73 0 0 0 1.2-.9c.3-.4.6-.8.8-1.3s.3-1 .3-1.6h0c0-.6-.1-1.1-.3-1.6s-.5-.9-.8-1.3-.8-.7-1.2-.9c-.5-.2-1-.3-1.6-.3s-1.1.1-1.6.3a2.73 2.73 0 0 0-1.2.9c-.3.4-.6.8-.8 1.3s-.3 1-.3 1.6h0c0 .6.1 1.1.3 1.6s.5.9.8 1.3c.4.4.8.7 1.2.9.5.2 1 .3 1.6.3m10.4-9.1h1l6.3 8v-8h1.1v10h-.9l-6.4-8.2v8.2h-1.1zm17.6 10.1c-.8 0-1.5-.1-2.2-.4s-1.3-.7-1.9-1.2l.7-.8c.5.5 1 .8 1.6 1.1.5.2 1.1.3 1.8.3s1.2-.2 1.6-.5.6-.7.6-1.2h0c0-.2 0-.4-.1-.6s-.2-.4-.4-.5c-.2-.2-.5-.3-.8-.4s-.8-.2-1.3-.4c-.6-.1-1.1-.3-1.5-.4-.4-.2-.8-.4-1-.6-.3-.2-.5-.5-.6-.8s-.2-.7-.2-1.1h0c0-.4.1-.7.2-1.1.2-.3.4-.6.7-.9l1-.6c.4-.1.8-.2 1.3-.2.7 0 1.4.1 1.9.3s1.1.5 1.6.9l-.7.9c-.5-.4-.9-.7-1.4-.8-.5-.2-1-.3-1.5-.3-.7 0-1.2.2-1.6.5s-.6.7-.6 1.1h0c0 .2 0 .4.1.6s.2.4.4.5c.2.2.5.3.8.4l1.4.4a6.5 6.5 0 0 1 2.5 1c.5.4.8 1 .8 1.8h0c0 .4-.1.8-.3 1.2-.2.3-.4.6-.7.9-.3.2-.7.4-1.1.6-.1.3-.6.3-1.1.3m-85.1-73V51h-9.1V18.4L29.9 39.9h-5.4L9.2 18.4V51H0V1.4h7.2l20 28 20-28z"></path><path d="M70.9 42.4h25.8V51H61.8V1.4h9.1zm59.9-1.2c1.7 1.4 2.5 3 2.5 4.8s-1.1 3.2-3.2 4.5c-2.1 1.2-5.3 1.8-9.5 1.8-6.8 0-13.6-1.9-20.3-5.8l4.6-7.3c5.3 3 10.7 4.5 16.1 4.5 4.8 0 8.1-.8 9.8-2.5m-7-19.3l5.3 1.7c1.3.4 2.9 1.1 4.9 2.1 2 .9 3.5 1.9 4.6 2.8s2 2.2 2.8 3.7 1.2 3.2 1.2 5a12.91 12.91 0 0 1-2.1 7.2c-.2-1.8-.9-3.5-2.1-5-1.2-1.6-2.9-3-5-4.2s-4.2-2.3-6.4-3.2-4.7-1.7-7.5-2.6c-2.3-.7-4-1.3-5.3-1.7s-2.8-1.1-4.7-2.1c-1.9-.9-3.4-1.9-4.4-2.9s-1.9-2.2-2.7-3.8-1.2-3.4-1.2-5.3c0-4 1.7-7.3 5-9.7 3.6-2.7 8.7-4 15.3-4 6.5 0 12.9 1.8 19.2 5.5l-4.5 7.1c-5.3-2.9-10.4-4.4-15.1-4.4-3.4 0-5.9.5-7.7 1.4s-2.6 2.2-2.6 3.8c0 2.4 1.8 4.4 5.4 5.9 1.2.6 3.7 1.5 7.6 2.7"></path></svg> 