<svg width="10" height="10" viewBox="0 0 10 10" fill="none" xmlns="http://www.w3.org/2000/svg">
<path d="M5.42836 4.48V3.469C5.75806 3.5497 6.08036 3.7034 6.34406 3.9452L6.34516 3.9437C6.36486 3.9594 6.38876 3.9702 6.41596 3.9702C6.45176 3.9702 6.48246 3.9529 6.50366 3.9274L6.50516 3.9277L6.93136 3.3269L6.93036 3.3264C6.94786 3.3062 6.95946 3.2806 6.95946 3.2518C6.95946 3.2178 6.94416 3.188 6.92076 3.1669C6.52546 2.8018 6.02076 2.5826 5.42836 2.5167V1.9361C5.42836 1.8724 5.37666 1.8208 5.31296 1.8208H4.85516C4.79146 1.8208 4.73986 1.8724 4.73986 1.9361V2.502C3.75086 2.6045 3.16486 3.2346 3.16486 3.9745C3.16486 4.9708 3.98536 5.2565 4.73986 5.4397V6.5751C4.25536 6.4883 3.85716 6.2372 3.58626 5.9561C3.58439 5.9541 3.58239 5.95217 3.58026 5.9503L3.57506 5.9452L3.57426 5.9463C3.55422 5.92907 3.52878 5.91941 3.50236 5.919C3.48179 5.91919 3.46165 5.92494 3.44408 5.93564C3.42651 5.94634 3.41216 5.9616 3.40256 5.9798L3.40116 5.9796L2.98866 6.592L2.98916 6.593C2.9706 6.61352 2.96021 6.64013 2.95996 6.6678C2.95996 6.7045 2.97816 6.7357 3.00476 6.7568L3.00366 6.7584C3.40656 7.1613 3.97066 7.4543 4.73986 7.5203V8.0643C4.73986 8.128 4.79146 8.1796 4.85516 8.1796H5.31296C5.37666 8.1796 5.42826 8.1279 5.42826 8.0643L5.42836 7.5202C6.50526 7.4102 7.04006 6.7804 7.04006 5.9671C7.04006 4.9636 6.19026 4.6704 5.42836 4.48ZM4.73976 4.3114C4.43946 4.2163 4.23426 4.1063 4.23426 3.8938C4.23426 3.6448 4.41746 3.469 4.73976 3.425V4.3114ZM5.42836 6.5898V5.6082C5.75076 5.7107 5.97786 5.8281 5.97786 6.0697C5.97786 6.3042 5.80196 6.5165 5.42836 6.5898Z" fill="black"/>
</svg>
