<svg width="10" height="10" viewBox="0 0 10 10" fill="none" xmlns="http://www.w3.org/2000/svg">
<path d="M5.50538 4.07806C5.37421 3.94684 5.21848 3.84275 5.04708 3.77174C4.87567 3.70072 4.69196 3.66417 4.50642 3.66417C4.32089 3.66417 4.13718 3.70072 3.96577 3.77174C3.79437 3.84275 3.63864 3.94684 3.50747 4.07806L2.08038 5.50556C1.8155 5.7705 1.66671 6.12981 1.66675 6.50445C1.66679 6.8791 1.81565 7.23838 2.08059 7.50326C2.34553 7.76815 2.70485 7.91694 3.07949 7.9169C3.45413 7.91686 3.81341 7.768 4.0783 7.50306L4.21205 7.37639M4.0783 5.50556C4.20947 5.63677 4.3652 5.74086 4.53661 5.81187C4.70801 5.88289 4.89173 5.91944 5.07726 5.91944C5.26279 5.91944 5.44651 5.88289 5.61791 5.81187C5.78931 5.74086 5.94505 5.63677 6.07622 5.50556L7.50288 4.07806C7.76782 3.81317 7.91669 3.45389 7.91673 3.07924C7.91676 2.7046 7.76798 2.34529 7.50309 2.08035C7.23821 1.81541 6.87892 1.66654 6.50428 1.6665C6.12964 1.66646 5.77032 1.81525 5.50538 2.08014L5.07705 2.48056" stroke="#171B21" stroke-width="0.833333" stroke-linecap="round" stroke-linejoin="round"/>
</svg>
