<svg width="10" height="10" viewBox="0 0 10 10" fill="none" xmlns="http://www.w3.org/2000/svg">
<path d="M5 0.625C3.2748 0.625 1.875 1.88496 1.875 3.4375C1.875 5.9375 5 9.375 5 9.375C5 9.375 8.125 5.9375 8.125 3.4375C8.125 1.88496 6.7252 0.625 5 0.625ZM5 5C4.75277 5 4.5111 4.92669 4.30554 4.78934C4.09998 4.65199 3.93976 4.45676 3.84515 4.22835C3.75054 3.99995 3.72579 3.74861 3.77402 3.50614C3.82225 3.26366 3.9413 3.04093 4.11612 2.86612C4.29093 2.6913 4.51366 2.57225 4.75614 2.52402C4.99861 2.47579 5.24995 2.50054 5.47835 2.59515C5.70676 2.68976 5.90199 2.84998 6.03934 3.05554C6.17669 3.2611 6.25 3.50277 6.25 3.75C6.24964 4.08141 6.11783 4.39914 5.88348 4.63348C5.64914 4.86783 5.33141 4.99964 5 5Z" fill="black"/>
</svg>
