<svg xmlns="http://www.w3.org/2000/svg" fill="none" viewBox="25 160.76 350.36 79.46">
<circle cx="95.2414" cy="200.493" r="7.91338" stroke="black" stroke-width="2.6106"/>
<circle cx="87.2465" cy="177.977" r="5.30278" stroke="black" stroke-width="2.6106"/>
<circle cx="87.2465" cy="223.01" r="5.30278" stroke="black" stroke-width="2.6106"/>
<circle cx="42.2137" cy="177.977" r="5.30278" stroke="black" stroke-width="2.6106"/>
<circle cx="42.2137" cy="223.01" r="5.30278" stroke="black" stroke-width="2.6106"/>
<circle cx="64.73" cy="200.493" r="7.91338" stroke="black" stroke-width="2.6106"/>
<circle cx="64.73" cy="169.982" r="7.91338" stroke="black" stroke-width="2.6106"/>
<circle cx="64.73" cy="231.005" r="7.91338" stroke="black" stroke-width="2.6106"/>
<circle cx="34.2187" cy="200.493" r="7.91338" stroke="black" stroke-width="2.6106"/>
<line x1="47.377" y1="176.187" x2="56.351" y2="172.76" stroke="black" stroke-width="2.6106"/>
<line x1="42.7845" y1="200.575" x2="56.327" y2="200.575" stroke="black" stroke-width="2.6106"/>
<line x1="70.7926" y1="206.668" x2="82.7035" y2="218.579" stroke="black" stroke-width="2.6106"/>
<line x1="37.1676" y1="208.966" x2="39.9413" y2="217.124" stroke="black" stroke-width="2.6106"/>
<line x1="47.7801" y1="224.958" x2="56.2646" y2="227.895" stroke="black" stroke-width="2.6106"/>
<line x1="89.1972" y1="217.109" x2="92.1341" y2="208.788" stroke="black" stroke-width="2.6106"/>
<line x1="92.2972" y1="192.199" x2="89.3603" y2="183.877" stroke="black" stroke-width="2.6106"/>
<line y1="-1.3053" x2="9.60582" y2="-1.3053" transform="matrix(-0.934218 -0.356702 -0.356702 0.934218 81.1278 177.406)" stroke="black" stroke-width="2.6106"/>
<path d="M139.809 171.412H166.956C173.487 171.412 178.431 173.24 181.787 176.896C185.143 180.551 186.821 185.375 186.821 191.368C186.821 195.263 185.982 198.708 184.304 201.705C182.686 204.701 180.349 207.038 177.293 208.716C174.236 210.334 170.671 211.143 166.596 211.143H151.944V229.3H139.809V171.412ZM164.079 201.525C167.495 201.525 170.102 200.626 171.899 198.828C173.697 197.031 174.596 194.544 174.596 191.368C174.596 188.012 173.757 185.465 172.079 183.727C170.401 181.929 167.884 181.03 164.529 181.03H151.944V201.525H164.079Z" fill="black"/>
<path d="M213.846 171.412H227.15L249.172 229.3H236.588L231.105 215.368H209.801L204.408 229.3H191.734L213.846 171.412ZM229.307 206.019L220.408 182.738L211.599 206.019H229.307Z" fill="black"/>
<path d="M276.578 207.907L255.814 171.412H268.488L282.691 197.57L296.893 171.412H309.477L288.713 207.907V229.3H276.578V207.907Z" fill="black"/>
<path d="M352.255 230.199C349.558 230.199 346.502 229.93 343.086 229.39C339.671 228.851 336.974 228.192 334.996 227.413V216.806C339.611 218.783 344.764 219.772 350.457 219.772C354.832 219.772 358.008 219.173 359.985 217.975C362.023 216.716 363.041 214.589 363.041 211.592C363.041 209.076 362.143 207.278 360.345 206.199C358.607 205.061 355.97 204.491 352.435 204.491H343.356L344.255 195.592H351.805C355.281 195.592 357.828 195.023 359.446 193.884C361.064 192.686 361.873 190.828 361.873 188.311C361.873 185.795 360.944 183.937 359.086 182.738C357.229 181.48 354.322 180.851 350.367 180.851C347.85 180.851 345.304 181.12 342.727 181.66C340.21 182.139 337.963 182.828 335.985 183.727V173.39C337.963 172.551 340.45 171.862 343.446 171.323C346.502 170.783 349.498 170.514 352.435 170.514C359.446 170.514 364.809 171.982 368.525 174.918C372.3 177.854 374.188 181.75 374.188 186.604C374.188 189.6 373.498 192.326 372.12 194.783C370.802 197.18 368.854 198.918 366.277 199.997C369.334 200.896 371.611 202.484 373.109 204.761C374.607 206.978 375.356 209.675 375.356 212.851C375.356 218.604 373.289 222.948 369.154 225.885C365.019 228.761 359.386 230.199 352.255 230.199Z" fill="black"/>
</svg>