<svg width="43" height="38" viewBox="0 0 43 38" fill="none" xmlns="http://www.w3.org/2000/svg">
<path d="M12.1969 0C12.5961 0 12.9789 0.140125 13.2611 0.389548C13.5434 0.638971 13.702 0.977262 13.702 1.33V3.8171H29.8635V1.3471C29.8635 0.994362 30.0221 0.656071 30.3043 0.406648C30.5865 0.157225 30.9694 0.0171 31.3685 0.0171C31.7677 0.0171 32.1505 0.157225 32.4327 0.406648C32.7149 0.656071 32.8735 0.994362 32.8735 1.3471V3.8171H38.7C39.8401 3.8171 40.9335 4.2172 41.7398 4.92942C42.5461 5.64165 42.9994 6.60771 43 7.6152V34.2019C42.9994 35.2094 42.5461 36.1755 41.7398 36.8877C40.9335 37.5999 39.8401 38 38.7 38H4.3C3.15994 38 2.06655 37.5999 1.2602 36.8877C0.453856 36.1755 0.000570029 35.2094 0 34.2019L0 7.6152C0.000570029 6.60771 0.453856 5.64165 1.2602 4.92942C2.06655 4.2172 3.15994 3.8171 4.3 3.8171H10.692V1.3281C10.6925 0.975691 10.8513 0.637889 11.1335 0.388876C11.4157 0.139863 11.7982 -3.59601e-07 12.1969 0ZM3.01 14.7098V34.2019C3.01 34.3516 3.04337 34.4998 3.1082 34.6382C3.17302 34.7765 3.26804 34.9021 3.38783 35.008C3.50762 35.1139 3.64983 35.1978 3.80634 35.2551C3.96285 35.3124 4.13059 35.3419 4.3 35.3419H38.7C38.8694 35.3419 39.0372 35.3124 39.1937 35.2551C39.3502 35.1978 39.4924 35.1139 39.6122 35.008C39.732 34.9021 39.827 34.7765 39.8918 34.6382C39.9566 34.4998 39.99 34.3516 39.99 34.2019V14.7364L3.01 14.7098ZM14.3341 27.7761V30.9415H10.75V27.7761H14.3341ZM23.291 27.7761V30.9415H19.7091V27.7761H23.291ZM32.25 27.7761V30.9415H28.666V27.7761H32.25ZM14.3341 20.2198V23.3852H10.75V20.2198H14.3341ZM23.291 20.2198V23.3852H19.7091V20.2198H23.291ZM32.25 20.2198V23.3852H28.666V20.2198H32.25ZM10.692 6.4752H4.3C4.13059 6.4752 3.96285 6.50469 3.80634 6.56198C3.64983 6.61927 3.50762 6.70324 3.38783 6.8091C3.26804 6.91496 3.17302 7.04063 3.1082 7.17894C3.04337 7.31725 3.01 7.46549 3.01 7.6152V12.0517L39.99 12.0783V7.6152C39.99 7.46549 39.9566 7.31725 39.8918 7.17894C39.827 7.04063 39.732 6.91496 39.6122 6.8091C39.4924 6.70324 39.3502 6.61927 39.1937 6.56198C39.0372 6.50469 38.8694 6.4752 38.7 6.4752H32.8735V8.2403C32.8735 8.59304 32.7149 8.93133 32.4327 9.18075C32.1505 9.43018 31.7677 9.5703 31.3685 9.5703C30.9694 9.5703 30.5865 9.43018 30.3043 9.18075C30.0221 8.93133 29.8635 8.59304 29.8635 8.2403V6.4752H13.702V8.2232C13.702 8.57594 13.5434 8.91423 13.2611 9.16365C12.9789 9.41308 12.5961 9.5532 12.1969 9.5532C11.7978 9.5532 11.415 9.41308 11.1328 9.16365C10.8505 8.91423 10.692 8.57594 10.692 8.2232V6.4752Z" fill="black"/>
</svg>
